<mxfile host="app.diagrams.net" modified="2024-06-17T11:47:49.623Z" agent="Mozilla/5.0 (Windows NT 10.0; Win64; x64) AppleWebKit/537.36 (KHTML, like Gecko) Chrome/125.0.0.0 Safari/537.36" etag="DvjCsi4suaa4_BkQt1Ii" version="24.5.4" type="device">
  <diagram name="Страница — 1" id="ys9gOeWvE5gVsRyR9EHW">
    <mxGraphModel dx="1050" dy="565" grid="1" gridSize="10" guides="1" tooltips="1" connect="1" arrows="1" fold="1" page="1" pageScale="1" pageWidth="827" pageHeight="1169" math="0" shadow="0">
      <root>
        <mxCell id="0" />
        <mxCell id="1" parent="0" />
        <mxCell id="XJGOGH-ZNnLPxcdT0S2C-11" style="edgeStyle=orthogonalEdgeStyle;rounded=0;orthogonalLoop=1;jettySize=auto;html=1;exitX=0.5;exitY=1;exitDx=0;exitDy=0;entryX=0.5;entryY=0;entryDx=0;entryDy=0;" parent="1" source="E5bmAt0e2NMVcmRqQRA6-1" target="E5bmAt0e2NMVcmRqQRA6-2" edge="1">
          <mxGeometry relative="1" as="geometry" />
        </mxCell>
        <mxCell id="E5bmAt0e2NMVcmRqQRA6-1" value="&lt;font style=&quot;font-size: 14px;&quot; face=&quot;Helvetica&quot;&gt;Bits stream 1&lt;/font&gt;" style="rounded=0;whiteSpace=wrap;html=1;fillColor=#fff2cc;strokeColor=#d6b656;" parent="1" vertex="1">
          <mxGeometry x="20" y="40" width="100" height="40" as="geometry" />
        </mxCell>
        <mxCell id="XJGOGH-ZNnLPxcdT0S2C-14" style="edgeStyle=orthogonalEdgeStyle;rounded=0;orthogonalLoop=1;jettySize=auto;html=1;exitX=1;exitY=0.5;exitDx=0;exitDy=0;entryX=0;entryY=0.5;entryDx=0;entryDy=0;" parent="1" source="E5bmAt0e2NMVcmRqQRA6-2" target="E5bmAt0e2NMVcmRqQRA6-15" edge="1">
          <mxGeometry relative="1" as="geometry" />
        </mxCell>
        <mxCell id="E5bmAt0e2NMVcmRqQRA6-2" value="&lt;font style=&quot;font-size: 14px;&quot; face=&quot;Helvetica&quot;&gt;Modulator&lt;/font&gt;" style="rounded=0;whiteSpace=wrap;html=1;fillColor=#fff2cc;strokeColor=#d6b656;" parent="1" vertex="1">
          <mxGeometry x="20" y="100" width="100" height="40" as="geometry" />
        </mxCell>
        <mxCell id="XJGOGH-ZNnLPxcdT0S2C-15" style="edgeStyle=orthogonalEdgeStyle;rounded=0;orthogonalLoop=1;jettySize=auto;html=1;exitX=1;exitY=0.25;exitDx=0;exitDy=0;entryX=0.5;entryY=1;entryDx=0;entryDy=0;" parent="1" source="E5bmAt0e2NMVcmRqQRA6-14" target="E5bmAt0e2NMVcmRqQRA6-15" edge="1">
          <mxGeometry relative="1" as="geometry" />
        </mxCell>
        <mxCell id="XJGOGH-ZNnLPxcdT0S2C-16" style="edgeStyle=orthogonalEdgeStyle;rounded=0;orthogonalLoop=1;jettySize=auto;html=1;exitX=1;exitY=0.75;exitDx=0;exitDy=0;entryX=0.5;entryY=0;entryDx=0;entryDy=0;" parent="1" source="E5bmAt0e2NMVcmRqQRA6-14" target="XJGOGH-ZNnLPxcdT0S2C-4" edge="1">
          <mxGeometry relative="1" as="geometry" />
        </mxCell>
        <mxCell id="E5bmAt0e2NMVcmRqQRA6-14" value="&lt;font style=&quot;font-size: 14px;&quot; face=&quot;Helvetica&quot;&gt;Pilot signals&lt;/font&gt;" style="rounded=0;whiteSpace=wrap;html=1;fillColor=#fff2cc;strokeColor=#d6b656;" parent="1" vertex="1">
          <mxGeometry x="20" y="170" width="100" height="40" as="geometry" />
        </mxCell>
        <mxCell id="E5bmAt0e2NMVcmRqQRA6-15" value="&lt;font style=&quot;font-size: 14px;&quot; face=&quot;Helvetica&quot;&gt;OFDM Modulation&lt;/font&gt;" style="rounded=0;whiteSpace=wrap;html=1;fillColor=#fff2cc;strokeColor=#d6b656;" parent="1" vertex="1">
          <mxGeometry x="140" y="100" width="100" height="40" as="geometry" />
        </mxCell>
        <mxCell id="E5bmAt0e2NMVcmRqQRA6-18" value="" style="verticalLabelPosition=bottom;shadow=0;dashed=0;align=center;html=1;verticalAlign=top;shape=mxgraph.electrical.radio.aerial_-_antenna_1;" parent="1" vertex="1">
          <mxGeometry x="240" y="50" width="40" height="50" as="geometry" />
        </mxCell>
        <mxCell id="E5bmAt0e2NMVcmRqQRA6-19" style="edgeStyle=orthogonalEdgeStyle;rounded=0;orthogonalLoop=1;jettySize=auto;html=1;entryX=0.5;entryY=1;entryDx=0;entryDy=0;entryPerimeter=0;exitX=1;exitY=0.5;exitDx=0;exitDy=0;" parent="1" source="E5bmAt0e2NMVcmRqQRA6-15" target="E5bmAt0e2NMVcmRqQRA6-18" edge="1">
          <mxGeometry relative="1" as="geometry">
            <mxPoint x="560" y="130" as="sourcePoint" />
          </mxGeometry>
        </mxCell>
        <mxCell id="E5bmAt0e2NMVcmRqQRA6-21" value="&lt;font style=&quot;&quot; face=&quot;Helvetica&quot;&gt;&lt;span style=&quot;font-size: 14px;&quot;&gt;Rayleigh&amp;nbsp;&lt;/span&gt;&lt;/font&gt;&lt;div&gt;&lt;span style=&quot;font-size: 14px;&quot;&gt;channel&lt;/span&gt;&lt;font style=&quot;&quot; face=&quot;Helvetica&quot;&gt;&lt;span style=&quot;font-size: 14px;&quot;&gt;, AWGN&lt;/span&gt;&lt;/font&gt;&lt;/div&gt;" style="rounded=0;whiteSpace=wrap;html=1;fillColor=#dae8fc;strokeColor=#6c8ebf;" parent="1" vertex="1">
          <mxGeometry x="290" y="50" width="90" height="210" as="geometry" />
        </mxCell>
        <mxCell id="E5bmAt0e2NMVcmRqQRA6-37" value="&lt;font style=&quot;font-size: 14px;&quot; face=&quot;Helvetica&quot;&gt;Remove pilot signals&lt;/font&gt;" style="rounded=0;whiteSpace=wrap;html=1;fillColor=#ffe6cc;strokeColor=#d79b00;" parent="1" vertex="1">
          <mxGeometry x="451" y="170" width="100" height="40" as="geometry" />
        </mxCell>
        <mxCell id="YCkYlvi9W99BddGM-PKa-2" style="edgeStyle=orthogonalEdgeStyle;rounded=0;orthogonalLoop=1;jettySize=auto;html=1;exitX=1;exitY=0.5;exitDx=0;exitDy=0;entryX=0;entryY=0.5;entryDx=0;entryDy=0;" edge="1" parent="1" source="E5bmAt0e2NMVcmRqQRA6-68" target="YCkYlvi9W99BddGM-PKa-1">
          <mxGeometry relative="1" as="geometry" />
        </mxCell>
        <mxCell id="E5bmAt0e2NMVcmRqQRA6-68" value="&lt;font style=&quot;font-size: 14px;&quot; face=&quot;Helvetica&quot;&gt;OFDM Demodulation&lt;/font&gt;" style="rounded=0;whiteSpace=wrap;html=1;fillColor=#ffe6cc;strokeColor=#d79b00;" parent="1" vertex="1">
          <mxGeometry x="451" y="100" width="100" height="40" as="geometry" />
        </mxCell>
        <mxCell id="E5bmAt0e2NMVcmRqQRA6-69" value="" style="verticalLabelPosition=bottom;shadow=0;dashed=0;align=center;html=1;verticalAlign=top;shape=mxgraph.electrical.radio.aerial_-_antenna_1;" parent="1" vertex="1">
          <mxGeometry x="391" y="50" width="40" height="50" as="geometry" />
        </mxCell>
        <mxCell id="E5bmAt0e2NMVcmRqQRA6-74" style="edgeStyle=orthogonalEdgeStyle;rounded=0;orthogonalLoop=1;jettySize=auto;html=1;exitX=0.5;exitY=1;exitDx=0;exitDy=0;entryX=0;entryY=0.5;entryDx=0;entryDy=0;exitPerimeter=0;" parent="1" source="E5bmAt0e2NMVcmRqQRA6-69" target="E5bmAt0e2NMVcmRqQRA6-68" edge="1">
          <mxGeometry relative="1" as="geometry">
            <mxPoint x="631" y="70" as="sourcePoint" />
            <mxPoint x="591" y="50" as="targetPoint" />
          </mxGeometry>
        </mxCell>
        <mxCell id="E5bmAt0e2NMVcmRqQRA6-78" style="edgeStyle=orthogonalEdgeStyle;rounded=0;orthogonalLoop=1;jettySize=auto;html=1;exitX=0.5;exitY=1;exitDx=0;exitDy=0;entryX=0.5;entryY=0;entryDx=0;entryDy=0;" parent="1" source="E5bmAt0e2NMVcmRqQRA6-68" target="E5bmAt0e2NMVcmRqQRA6-37" edge="1">
          <mxGeometry relative="1" as="geometry">
            <mxPoint x="511" y="250" as="sourcePoint" />
            <mxPoint x="511" y="220" as="targetPoint" />
          </mxGeometry>
        </mxCell>
        <mxCell id="YCkYlvi9W99BddGM-PKa-3" style="edgeStyle=orthogonalEdgeStyle;rounded=0;orthogonalLoop=1;jettySize=auto;html=1;exitX=0.5;exitY=0;exitDx=0;exitDy=0;entryX=0.5;entryY=1;entryDx=0;entryDy=0;" edge="1" parent="1" source="E5bmAt0e2NMVcmRqQRA6-79" target="YCkYlvi9W99BddGM-PKa-1">
          <mxGeometry relative="1" as="geometry" />
        </mxCell>
        <mxCell id="E5bmAt0e2NMVcmRqQRA6-79" value="&lt;font style=&quot;font-size: 14px;&quot; face=&quot;Helvetica&quot;&gt;Channel Estimation&lt;/font&gt;" style="rounded=0;whiteSpace=wrap;html=1;fillColor=#ffe6cc;strokeColor=#d79b00;" parent="1" vertex="1">
          <mxGeometry x="571" y="170" width="100" height="40" as="geometry" />
        </mxCell>
        <mxCell id="E5bmAt0e2NMVcmRqQRA6-80" value="" style="endArrow=classic;html=1;rounded=0;exitX=1;exitY=0.5;exitDx=0;exitDy=0;entryX=0;entryY=0.5;entryDx=0;entryDy=0;" parent="1" source="E5bmAt0e2NMVcmRqQRA6-37" target="E5bmAt0e2NMVcmRqQRA6-79" edge="1">
          <mxGeometry width="50" height="50" relative="1" as="geometry">
            <mxPoint x="621" y="300" as="sourcePoint" />
            <mxPoint x="671" y="250" as="targetPoint" />
          </mxGeometry>
        </mxCell>
        <mxCell id="YCkYlvi9W99BddGM-PKa-5" style="edgeStyle=orthogonalEdgeStyle;rounded=0;orthogonalLoop=1;jettySize=auto;html=1;exitX=0.5;exitY=1;exitDx=0;exitDy=0;entryX=0.5;entryY=0;entryDx=0;entryDy=0;" edge="1" parent="1" source="E5bmAt0e2NMVcmRqQRA6-92" target="E5bmAt0e2NMVcmRqQRA6-94">
          <mxGeometry relative="1" as="geometry" />
        </mxCell>
        <mxCell id="E5bmAt0e2NMVcmRqQRA6-92" value="&lt;font style=&quot;font-size: 14px;&quot; face=&quot;Helvetica&quot;&gt;Demodulator&lt;/font&gt;" style="rounded=0;whiteSpace=wrap;html=1;fillColor=#ffe6cc;strokeColor=#d79b00;" parent="1" vertex="1">
          <mxGeometry x="690" y="100" width="100" height="40" as="geometry" />
        </mxCell>
        <mxCell id="E5bmAt0e2NMVcmRqQRA6-94" value="&lt;font style=&quot;font-size: 14px;&quot; face=&quot;Helvetica&quot;&gt;Decoded bits stream&lt;/font&gt;" style="rounded=0;whiteSpace=wrap;html=1;fillColor=#ffe6cc;strokeColor=#d79b00;" parent="1" vertex="1">
          <mxGeometry x="690" y="170" width="100" height="40" as="geometry" />
        </mxCell>
        <mxCell id="XJGOGH-ZNnLPxcdT0S2C-12" style="edgeStyle=orthogonalEdgeStyle;rounded=0;orthogonalLoop=1;jettySize=auto;html=1;exitX=0.5;exitY=0;exitDx=0;exitDy=0;entryX=0.5;entryY=1;entryDx=0;entryDy=0;" parent="1" source="XJGOGH-ZNnLPxcdT0S2C-1" target="XJGOGH-ZNnLPxcdT0S2C-2" edge="1">
          <mxGeometry relative="1" as="geometry" />
        </mxCell>
        <mxCell id="XJGOGH-ZNnLPxcdT0S2C-1" value="&lt;font style=&quot;font-size: 14px;&quot; face=&quot;Helvetica&quot;&gt;Bits stream 2&lt;/font&gt;" style="rounded=0;whiteSpace=wrap;html=1;fillColor=#fff2cc;strokeColor=#d6b656;" parent="1" vertex="1">
          <mxGeometry x="20" y="300" width="100" height="40" as="geometry" />
        </mxCell>
        <mxCell id="XJGOGH-ZNnLPxcdT0S2C-13" style="edgeStyle=orthogonalEdgeStyle;rounded=0;orthogonalLoop=1;jettySize=auto;html=1;exitX=1;exitY=0.5;exitDx=0;exitDy=0;entryX=0;entryY=0.5;entryDx=0;entryDy=0;" parent="1" source="XJGOGH-ZNnLPxcdT0S2C-2" target="XJGOGH-ZNnLPxcdT0S2C-4" edge="1">
          <mxGeometry relative="1" as="geometry" />
        </mxCell>
        <mxCell id="XJGOGH-ZNnLPxcdT0S2C-2" value="&lt;font style=&quot;font-size: 14px;&quot; face=&quot;Helvetica&quot;&gt;Modulator&lt;/font&gt;" style="rounded=0;whiteSpace=wrap;html=1;fillColor=#fff2cc;strokeColor=#d6b656;" parent="1" vertex="1">
          <mxGeometry x="20" y="240" width="100" height="40" as="geometry" />
        </mxCell>
        <mxCell id="XJGOGH-ZNnLPxcdT0S2C-4" value="&lt;font style=&quot;font-size: 14px;&quot; face=&quot;Helvetica&quot;&gt;OFDM Modulation&lt;/font&gt;" style="rounded=0;whiteSpace=wrap;html=1;fillColor=#fff2cc;strokeColor=#d6b656;" parent="1" vertex="1">
          <mxGeometry x="140" y="240" width="100" height="40" as="geometry" />
        </mxCell>
        <mxCell id="XJGOGH-ZNnLPxcdT0S2C-5" value="" style="verticalLabelPosition=bottom;shadow=0;dashed=0;align=center;html=1;verticalAlign=top;shape=mxgraph.electrical.radio.aerial_-_antenna_1;" parent="1" vertex="1">
          <mxGeometry x="240" y="190" width="40" height="50" as="geometry" />
        </mxCell>
        <mxCell id="XJGOGH-ZNnLPxcdT0S2C-6" style="edgeStyle=orthogonalEdgeStyle;rounded=0;orthogonalLoop=1;jettySize=auto;html=1;entryX=0.5;entryY=1;entryDx=0;entryDy=0;entryPerimeter=0;exitX=1;exitY=0.5;exitDx=0;exitDy=0;" parent="1" source="XJGOGH-ZNnLPxcdT0S2C-4" target="XJGOGH-ZNnLPxcdT0S2C-5" edge="1">
          <mxGeometry relative="1" as="geometry">
            <mxPoint x="560" y="270" as="sourcePoint" />
          </mxGeometry>
        </mxCell>
        <mxCell id="YCkYlvi9W99BddGM-PKa-4" style="edgeStyle=orthogonalEdgeStyle;rounded=0;orthogonalLoop=1;jettySize=auto;html=1;exitX=1;exitY=0.5;exitDx=0;exitDy=0;entryX=0;entryY=0.5;entryDx=0;entryDy=0;" edge="1" parent="1" source="YCkYlvi9W99BddGM-PKa-1" target="E5bmAt0e2NMVcmRqQRA6-92">
          <mxGeometry relative="1" as="geometry" />
        </mxCell>
        <mxCell id="YCkYlvi9W99BddGM-PKa-1" value="&lt;font style=&quot;font-size: 14px;&quot; face=&quot;Helvetica&quot;&gt;Equalizer&lt;/font&gt;" style="rounded=0;whiteSpace=wrap;html=1;fillColor=#ffe6cc;strokeColor=#d79b00;" vertex="1" parent="1">
          <mxGeometry x="571" y="100" width="100" height="40" as="geometry" />
        </mxCell>
        <mxCell id="YCkYlvi9W99BddGM-PKa-6" value="&lt;font style=&quot;font-size: 14px;&quot; face=&quot;Helvetica&quot;&gt;Remove pilot signals&lt;/font&gt;" style="rounded=0;whiteSpace=wrap;html=1;fillColor=#e1d5e7;strokeColor=#9673a6;" vertex="1" parent="1">
          <mxGeometry x="451" y="310" width="100" height="40" as="geometry" />
        </mxCell>
        <mxCell id="YCkYlvi9W99BddGM-PKa-7" style="edgeStyle=orthogonalEdgeStyle;rounded=0;orthogonalLoop=1;jettySize=auto;html=1;exitX=1;exitY=0.5;exitDx=0;exitDy=0;entryX=0;entryY=0.5;entryDx=0;entryDy=0;" edge="1" parent="1" source="YCkYlvi9W99BddGM-PKa-8" target="YCkYlvi9W99BddGM-PKa-19">
          <mxGeometry relative="1" as="geometry" />
        </mxCell>
        <mxCell id="YCkYlvi9W99BddGM-PKa-8" value="&lt;font style=&quot;font-size: 14px;&quot; face=&quot;Helvetica&quot;&gt;OFDM Demodulation&lt;/font&gt;" style="rounded=0;whiteSpace=wrap;html=1;fillColor=#e1d5e7;strokeColor=#9673a6;" vertex="1" parent="1">
          <mxGeometry x="451" y="240" width="100" height="40" as="geometry" />
        </mxCell>
        <mxCell id="YCkYlvi9W99BddGM-PKa-9" value="" style="verticalLabelPosition=bottom;shadow=0;dashed=0;align=center;html=1;verticalAlign=top;shape=mxgraph.electrical.radio.aerial_-_antenna_1;" vertex="1" parent="1">
          <mxGeometry x="391" y="190" width="40" height="50" as="geometry" />
        </mxCell>
        <mxCell id="YCkYlvi9W99BddGM-PKa-10" style="edgeStyle=orthogonalEdgeStyle;rounded=0;orthogonalLoop=1;jettySize=auto;html=1;exitX=0.5;exitY=1;exitDx=0;exitDy=0;entryX=0;entryY=0.5;entryDx=0;entryDy=0;exitPerimeter=0;" edge="1" parent="1" source="YCkYlvi9W99BddGM-PKa-9" target="YCkYlvi9W99BddGM-PKa-8">
          <mxGeometry relative="1" as="geometry">
            <mxPoint x="631" y="210" as="sourcePoint" />
            <mxPoint x="591" y="190" as="targetPoint" />
          </mxGeometry>
        </mxCell>
        <mxCell id="YCkYlvi9W99BddGM-PKa-11" style="edgeStyle=orthogonalEdgeStyle;rounded=0;orthogonalLoop=1;jettySize=auto;html=1;exitX=0.5;exitY=1;exitDx=0;exitDy=0;entryX=0.5;entryY=0;entryDx=0;entryDy=0;" edge="1" parent="1" source="YCkYlvi9W99BddGM-PKa-8" target="YCkYlvi9W99BddGM-PKa-6">
          <mxGeometry relative="1" as="geometry">
            <mxPoint x="511" y="390" as="sourcePoint" />
            <mxPoint x="511" y="360" as="targetPoint" />
          </mxGeometry>
        </mxCell>
        <mxCell id="YCkYlvi9W99BddGM-PKa-12" style="edgeStyle=orthogonalEdgeStyle;rounded=0;orthogonalLoop=1;jettySize=auto;html=1;exitX=0.5;exitY=0;exitDx=0;exitDy=0;entryX=0.5;entryY=1;entryDx=0;entryDy=0;" edge="1" parent="1" source="YCkYlvi9W99BddGM-PKa-13" target="YCkYlvi9W99BddGM-PKa-19">
          <mxGeometry relative="1" as="geometry" />
        </mxCell>
        <mxCell id="YCkYlvi9W99BddGM-PKa-13" value="&lt;font style=&quot;font-size: 14px;&quot; face=&quot;Helvetica&quot;&gt;Channel Estimation&lt;/font&gt;" style="rounded=0;whiteSpace=wrap;html=1;fillColor=#e1d5e7;strokeColor=#9673a6;" vertex="1" parent="1">
          <mxGeometry x="571" y="310" width="100" height="40" as="geometry" />
        </mxCell>
        <mxCell id="YCkYlvi9W99BddGM-PKa-14" value="" style="endArrow=classic;html=1;rounded=0;exitX=1;exitY=0.5;exitDx=0;exitDy=0;entryX=0;entryY=0.5;entryDx=0;entryDy=0;" edge="1" parent="1" source="YCkYlvi9W99BddGM-PKa-6" target="YCkYlvi9W99BddGM-PKa-13">
          <mxGeometry width="50" height="50" relative="1" as="geometry">
            <mxPoint x="621" y="440" as="sourcePoint" />
            <mxPoint x="671" y="390" as="targetPoint" />
          </mxGeometry>
        </mxCell>
        <mxCell id="YCkYlvi9W99BddGM-PKa-15" style="edgeStyle=orthogonalEdgeStyle;rounded=0;orthogonalLoop=1;jettySize=auto;html=1;exitX=0.5;exitY=1;exitDx=0;exitDy=0;entryX=0.5;entryY=0;entryDx=0;entryDy=0;" edge="1" parent="1" source="YCkYlvi9W99BddGM-PKa-16" target="YCkYlvi9W99BddGM-PKa-17">
          <mxGeometry relative="1" as="geometry" />
        </mxCell>
        <mxCell id="YCkYlvi9W99BddGM-PKa-16" value="&lt;font style=&quot;font-size: 14px;&quot; face=&quot;Helvetica&quot;&gt;Demodulator&lt;/font&gt;" style="rounded=0;whiteSpace=wrap;html=1;fillColor=#e1d5e7;strokeColor=#9673a6;" vertex="1" parent="1">
          <mxGeometry x="690" y="240" width="100" height="40" as="geometry" />
        </mxCell>
        <mxCell id="YCkYlvi9W99BddGM-PKa-17" value="&lt;font style=&quot;font-size: 14px;&quot; face=&quot;Helvetica&quot;&gt;Decoded bits stream&lt;/font&gt;" style="rounded=0;whiteSpace=wrap;html=1;fillColor=#e1d5e7;strokeColor=#9673a6;" vertex="1" parent="1">
          <mxGeometry x="690" y="310" width="100" height="40" as="geometry" />
        </mxCell>
        <mxCell id="YCkYlvi9W99BddGM-PKa-18" style="edgeStyle=orthogonalEdgeStyle;rounded=0;orthogonalLoop=1;jettySize=auto;html=1;exitX=1;exitY=0.5;exitDx=0;exitDy=0;entryX=0;entryY=0.5;entryDx=0;entryDy=0;" edge="1" parent="1" source="YCkYlvi9W99BddGM-PKa-19" target="YCkYlvi9W99BddGM-PKa-16">
          <mxGeometry relative="1" as="geometry" />
        </mxCell>
        <mxCell id="YCkYlvi9W99BddGM-PKa-19" value="&lt;font style=&quot;font-size: 14px;&quot; face=&quot;Helvetica&quot;&gt;Equalizer&lt;/font&gt;" style="rounded=0;whiteSpace=wrap;html=1;fillColor=#e1d5e7;strokeColor=#9673a6;" vertex="1" parent="1">
          <mxGeometry x="571" y="240" width="100" height="40" as="geometry" />
        </mxCell>
        <mxCell id="YCkYlvi9W99BddGM-PKa-20" value="" style="rounded=0;whiteSpace=wrap;html=1;fillColor=none;dashed=1;strokeColor=#d79b00;strokeWidth=2;" vertex="1" parent="1">
          <mxGeometry x="440" y="70" width="369" height="150" as="geometry" />
        </mxCell>
        <mxCell id="YCkYlvi9W99BddGM-PKa-22" value="" style="rounded=0;whiteSpace=wrap;html=1;fillColor=none;dashed=1;strokeColor=#9673a6;strokeWidth=2;" vertex="1" parent="1">
          <mxGeometry x="440" y="230" width="369" height="160" as="geometry" />
        </mxCell>
        <mxCell id="YCkYlvi9W99BddGM-PKa-23" value="UE1" style="text;html=1;align=center;verticalAlign=middle;whiteSpace=wrap;rounded=0;fontSize=17;fontColor=#0e39b9;" vertex="1" parent="1">
          <mxGeometry x="440" y="70" width="60" height="30" as="geometry" />
        </mxCell>
        <mxCell id="YCkYlvi9W99BddGM-PKa-24" value="UE2" style="text;html=1;align=center;verticalAlign=middle;whiteSpace=wrap;rounded=0;fontSize=17;fontColor=#0e39b9;" vertex="1" parent="1">
          <mxGeometry x="440" y="360" width="60" height="30" as="geometry" />
        </mxCell>
      </root>
    </mxGraphModel>
  </diagram>
</mxfile>
